<?xml version="1.0" encoding="iso-8859-1"?>
<!-- Uploaded to: SVG Repo, www.svgrepo.com, Generator: SVG Repo Mixer Tools -->
<svg fill="#000000" height="800px" width="800px" version="1.1" id="Layer_1" xmlns="http://www.w3.org/2000/svg" xmlns:xlink="http://www.w3.org/1999/xlink" 
	 viewBox="0 0 512 512" xml:space="preserve">
<g>
	<g>
		<path d="M444.125,495.967h-9.086V332.96c0-2.778-1.439-5.358-3.802-6.82s-5.315-1.594-7.8-0.351l-56.807,28.404V332.96
			c0-2.778-1.439-5.358-3.802-6.82s-5.315-1.594-7.8-0.351l-56.807,28.404V332.96c0-2.778-1.439-5.358-3.802-6.82
			c-2.363-1.461-5.316-1.594-7.8-0.351l-56.807,28.404V332.96c0-2.778-1.439-5.358-3.802-6.82s-5.315-1.594-7.8-0.351
			l-56.807,28.404V332.96v-34.205c0-4.427-3.589-8.017-8.017-8.017h-0.534v-52.376h0.534c4.427,0,8.017-3.589,8.017-8.017v-34.205
			c0-4.427-3.589-8.017-8.017-8.017h-51.307c-4.427,0-8.017,3.589-8.017,8.017v34.205c0,4.427,3.589,8.017,8.017,8.017h0.534v52.376
			h-0.534c-4.427,0-8.017,3.589-8.017,8.017v54.904l-12.671,6.335c-2.716,1.357-4.432,4.133-4.432,7.17v128.802h-9.086
			c-4.427,0-8.017,3.589-8.017,8.017c0,4.427,3.589,8.017,8.017,8.017h376.25c4.427,0,8.017-3.589,8.017-8.017
			C452.142,499.556,448.553,495.967,444.125,495.967z M110.096,204.159h35.274v18.171h-35.274V204.159z M136.818,238.363v52.376
			h-18.171v-52.376H136.818z M110.096,306.772h35.274v21.234l-35.274,17.637V306.772z M419.006,495.967H92.994v-18.171h326.013
			V495.967z M419.006,461.762H92.994v-89.643l52.376-26.188v21.234c0,2.778,1.439,5.358,3.802,6.82s5.315,1.594,7.8,0.351
			l56.807-28.404v21.234c0,2.778,1.439,5.358,3.802,6.82s5.316,1.594,7.8,0.351l56.807-28.404v21.234
			c0,2.778,1.439,5.358,3.802,6.82c2.363,1.461,5.315,1.594,7.8,0.351l56.807-28.404v21.234c0,2.778,1.439,5.358,3.802,6.82
			c2.363,1.461,5.316,1.594,7.8,0.351l56.807-28.404V461.762z"/>
	</g>
</g>
<g>
	<g>
		<path d="M401.37,42.756c-7.937,0-15.591,1.827-22.549,5.322c-4.742-8.849-12.652-15.95-22.362-19.625
			c-5.623-2.128-11.421-2.999-17.294-2.604C328.165,9.778,309.874,0,290.205,0c-15.557,0-30.516,6.191-41.592,17.102h-26.818
			c-56.287,0-102.079,45.792-102.079,102.079v42.756c0,4.427,3.589,8.017,8.017,8.017c4.427,0,8.017-3.589,8.017-8.017
			c0-38.809,25.875-72.395,62.585-82.732c4.947,17.911,21.271,30.891,40.563,30.891c5.471,0,10.802-1.084,15.913-3.23
			c3.251,2.427,6.72,4.498,10.351,6.2c1.266,22.152,19.683,39.786,42.145,39.786c6.297,0,12.432-1.394,18.055-4.069
			c9.225,8.084,21.029,12.62,33.252,12.62c14.577,0,28.476-6.402,38.079-17.339c1.585,0.158,3.137,0.236,4.676,0.236
			c27.995,0,50.772-22.777,50.772-50.772C452.142,65.533,429.365,42.756,401.37,42.756z M261.261,91.437
			c-2.58-2.328-6.368-2.728-9.378-0.989c-4.152,2.398-8.52,3.614-12.985,3.614c-13.938,0-25.374-10.965-26.034-24.963
			c-0.109-2.309-1.209-4.458-3.019-5.897c-1.81-1.439-4.154-2.027-6.426-1.612c-28.036,5.107-51.631,21.367-66.549,43.702
			c6.658-40.867,42.206-72.157,84.926-72.157h30.243c2.278,0,4.448-0.968,5.968-2.665c8.23-9.175,19.966-14.438,32.198-14.438
			c15.713,0,30.222,8.558,37.867,22.332c1.698,3.06,5.187,4.665,8.614,3.965c4.871-0.995,9.482-0.629,14.097,1.117
			c8.519,3.224,14.817,10.623,16.437,19.307c1.489,7.981-0.482,15.737-5.551,21.839c-4.998,6.018-12.345,9.469-20.157,9.469
			c-4.464,0-8.833-1.216-12.986-3.614c-3.01-1.738-6.798-1.337-9.377,0.99c-7.991,7.206-18.271,11.175-28.944,11.175
			C279.532,102.614,269.252,98.645,261.261,91.437z M401.37,128.267c-2.062,0-4.209-0.219-6.566-0.67
			c-3.066-0.588-6.198,0.661-8.021,3.199c-6.549,9.125-17.079,14.573-28.169,14.573c-9.961,0-19.169-4.219-25.929-11.881
			c-2.684-3.042-7.218-3.598-10.56-1.297c-4.392,3.027-9.516,4.626-14.818,4.626c-11.848,0-21.877-7.911-25.099-18.726
			c2.637,0.36,5.306,0.555,7.996,0.555c12.8,0,25.175-4.149,35.394-11.781c5.11,2.146,10.442,3.23,15.913,3.23
			c12.594,0,24.436-5.561,32.49-15.256c7.2-8.668,10.565-19.794,9.522-31.037c5.378-3.277,11.477-5.013,17.846-5.013
			c19.155,0,34.739,15.584,34.739,34.739C436.109,112.683,420.524,128.267,401.37,128.267z"/>
	</g>
</g>
<g>
	<g>
		<path d="M375.716,393.353h-34.205c-4.427,0-8.017,3.589-8.017,8.017c0,4.427,3.589,8.017,8.017,8.017h34.205
			c4.427,0,8.017-3.589,8.017-8.017C383.733,396.942,380.143,393.353,375.716,393.353z"/>
	</g>
</g>
<g>
	<g>
		<path d="M375.716,427.557h-34.205c-4.427,0-8.017,3.589-8.017,8.017c0,4.427,3.589,8.017,8.017,8.017h34.205
			c4.427,0,8.017-3.589,8.017-8.017C383.733,431.147,380.143,427.557,375.716,427.557z"/>
	</g>
</g>
<g>
	<g>
		<path d="M307.307,393.353h-34.205c-4.427,0-8.017,3.589-8.017,8.017c0,4.427,3.589,8.017,8.017,8.017h34.205
			c4.427,0,8.017-3.589,8.017-8.017C315.324,396.942,311.734,393.353,307.307,393.353z"/>
	</g>
</g>
<g>
	<g>
		<path d="M307.307,427.557h-34.205c-4.427,0-8.017,3.589-8.017,8.017c0,4.427,3.589,8.017,8.017,8.017h34.205
			c4.427,0,8.017-3.589,8.017-8.017C315.324,431.147,311.734,427.557,307.307,427.557z"/>
	</g>
</g>
<g>
	<g>
		<path d="M238.898,393.353h-34.205c-4.427,0-8.017,3.589-8.017,8.017c0,4.427,3.589,8.017,8.017,8.017h34.205
			c4.427,0,8.017-3.589,8.017-8.017C246.914,396.942,243.325,393.353,238.898,393.353z"/>
	</g>
</g>
<g>
	<g>
		<path d="M238.898,427.557h-34.205c-4.427,0-8.017,3.589-8.017,8.017c0,4.427,3.589,8.017,8.017,8.017h34.205
			c4.427,0,8.017-3.589,8.017-8.017C246.914,431.147,243.325,427.557,238.898,427.557z"/>
	</g>
</g>
<g>
	<g>
		<path d="M170.489,393.353h-34.205c-4.427,0-8.017,3.589-8.017,8.017c0,4.427,3.589,8.017,8.017,8.017h34.205
			c4.427,0,8.017-3.589,8.017-8.017C178.505,396.942,174.916,393.353,170.489,393.353z"/>
	</g>
</g>
<g>
	<g>
		<path d="M170.489,427.557h-34.205c-4.427,0-8.017,3.589-8.017,8.017c0,4.427,3.589,8.017,8.017,8.017h34.205
			c4.427,0,8.017-3.589,8.017-8.017C178.505,431.147,174.916,427.557,170.489,427.557z"/>
	</g>
</g>
</svg>